<svg width="74" height="74" viewBox="0 0 74 74" fill="none" xmlns="http://www.w3.org/2000/svg">
<circle cx="37" cy="37" r="37" fill="#183A40"/>
<path d="M27.1916 51C25.5281 51 24.0957 50.5841 22.8943 49.7524C21.7853 48.9206 20.9074 47.7655 20.2605 46.2868C19.706 44.7158 19.4288 42.9599 19.4288 41.0192C19.4288 38.524 19.8447 36.075 20.6764 33.6723C21.6005 31.2695 22.9405 29.0516 24.6963 27.0184C26.4522 24.9853 28.6702 23.3219 31.3502 22.0281L35.2316 25.4936C33.0136 26.2329 31.073 27.4343 29.4095 29.0978C27.7461 30.6688 26.4523 32.4247 25.5281 34.3654C24.6964 36.2137 24.3267 38.0157 24.4191 39.7716L24.835 39.9102C25.1122 39.5406 25.482 39.2633 25.944 39.0785C26.4061 38.8013 27.0991 38.6626 28.0233 38.6626C28.855 38.6626 29.6868 38.8937 30.5185 39.3558C31.4427 39.8178 32.1357 40.5109 32.5978 41.4351C33.1523 42.2668 33.4296 43.3758 33.4296 44.762C33.4296 45.871 33.1523 46.9337 32.5978 47.9503C32.0433 48.8744 31.304 49.6137 30.3799 50.1682C29.4557 50.7227 28.393 51 27.1916 51ZM47.4303 51C45.7669 51 44.3344 50.5841 43.133 49.7524C42.0241 48.9206 41.1461 47.7655 40.4992 46.2868C39.9447 44.7158 39.6675 42.9599 39.6675 41.0192C39.6675 38.524 40.0834 36.075 40.9151 33.6723C41.8393 31.2695 43.1793 29.0516 44.9352 27.0184C46.691 24.9853 48.9089 23.3219 51.5889 22.0281L55.4703 25.4936C53.2524 26.2329 51.3117 27.4343 49.6482 29.0978C47.9848 30.6688 46.691 32.4247 45.7668 34.3654C44.9351 36.2137 44.5654 38.0157 44.6578 39.7716L45.0737 39.9102C45.351 39.5406 45.7207 39.2633 46.1827 39.0785C46.6448 38.8013 47.3378 38.6626 48.262 38.6626C49.0937 38.6626 49.9255 38.8937 50.7572 39.3558C51.6814 39.8178 52.3744 40.5109 52.8365 41.4351C53.391 42.2668 53.6683 43.3758 53.6683 44.762C53.6683 45.871 53.391 46.9337 52.8365 47.9503C52.282 48.8744 51.4966 49.6137 50.48 50.1682C49.5559 50.7227 48.5393 51 47.4303 51Z" fill="#14BCB2"/>
</svg>
